<?xml version="1.0" encoding="UTF-8" standalone="no"?>
<svg width="495" height="125" xmlns="http://www.w3.org/2000/svg" xmlns:svg="http://www.w3.org/2000/svg">
 <!-- Created with SVG-edit - http://svg-edit.googlecode.com/ -->
 <g>
  <title>Layer 1</title>
  <metadata id="svg_80">image/svg+xml</metadata>
  <defs>
   <clipPath id="svg_69" clipPathUnits="userSpaceOnUse">
    <path id="svg_79" d="m980.10199,2448.100098c185.89801,263.399902 374.89801,519.099854 594.997986,697.199951c-223.900024,-48.600098 -456.799927,-118.300049 -631.095947,-282.5c-25.304993,8 10.995972,-187.600098 36.098022,-414.699951" clip-rule="evenodd"/>
   </clipPath>
  </defs>
  <g id="svg_42"/>
  <g id="svg_82">
   <path id="svg_76" d="m2.997787,76.626083c5.153145,-3.469238 10.533379,-6.606171 16.102791,-9.537079c5.4105,-2.844513 11.025322,-5.476349 16.715805,-7.862289c12.47821,-5.230438 25.425575,-9.410797 38.751305,-12.667358c7.219055,-1.7612 14.475937,-3.210037 21.823624,-4.486084c12.470657,-2.166618 25.107773,-3.482536 37.767593,-4.386391l-0.015152,0c0.847534,-0.06646 1.687485,-0.132919 2.542572,-0.132919c3.057877,0.006638 5.645096,0.405396 8.467621,1.455475c-0.037842,-0.013283 -0.0681,-0.026573 -0.097595,-0.033226c6.628036,1.840958 13.536835,3.050522 20.422928,3.874649c5.614822,0.671234 11.22963,1.176346 16.889847,1.535233c4.404068,0.279144 8.81572,0.491806 13.227371,0.657959c1.316681,0.053177 2.633362,0.106339 3.950043,0.152863c0.786987,0.033234 1.589081,0.079758 2.376099,0.079758c-0.809723,0.079742 -1.649658,0.106323 -2.466919,0.139557c-1.04425,0.046524 -2.096069,0.08707 -3.14035,0.112991c-3.450623,0.099686 -6.893677,0.126266 -10.344269,0.08638c-5.047287,-0.053146 -10.041595,-0.278458 -15.066177,-0.610764c-4.706757,-0.306366 -9.481628,-0.824768 -14.127853,-1.529251c-3.458176,-0.518402 -6.939056,-1.143127 -10.314011,-1.973877c-0.711304,-0.172806 -1.415039,-0.352249 -2.11879,-0.53833c-0.196732,-0.053162 -0.401062,-0.139557 -0.59024,-0.206024c-0.378357,-0.126282 -0.756714,-0.238602 -1.142624,-0.345596c-1.195618,-0.325665 -2.565277,-0.551617 -3.821411,-0.624733c-0.779419,-0.046513 -1.543701,-0.06646 -2.323105,-0.046513c-1.377243,0.046513 -2.807419,0.206032 -4.177078,0.319016c-2.224731,0.179428 -4.457031,0.372162 -6.67421,0.591492c-8.656799,0.864639 -17.237946,1.90741 -25.811493,3.289795c-4.562988,0.73172 -9.125977,1.555176 -13.651123,2.465683c-2.746872,0.55162 -5.478607,1.149765 -8.210358,1.7612c-1.959869,0.431992 -3.919769,0.910507 -5.864517,1.395676c-1.256149,0.312363 -2.519852,0.618088 -3.768433,0.957031c-2.466888,0.664597 -4.926208,1.322571 -7.385529,2.033691c-2.542572,0.724411 -5.047287,1.515305 -7.567139,2.29953c-1.754822,0.544983 -3.518715,1.136475 -5.251595,1.734619c-3.927345,1.362442 -7.786583,2.771393 -11.653389,4.280045c-7.226618,2.811295 -14.233788,6.001385 -21.142588,9.37759c-4.161924,2.040329 -8.225097,4.226883 -12.311653,6.380203" fill-rule="nonzero" fill="#ffffff"/>
   <path id="svg_75" d="m246.016327,8.636993c3.927338,0.146873 7.847137,0.313025 11.766876,0.525032c11.002625,0.591507 22.035522,1.515305 32.962463,2.771416c7.203888,0.824104 14.407837,1.767838 21.551208,2.91761c4.759705,0.76429 9.496735,1.588394 14.226196,2.492264c4.199768,0.804184 8.346588,1.701401 12.516052,2.6119c1.679901,0.372169 3.359833,0.777588 5.039703,1.176353c2.27774,0.551619 4.55545,1.116539 6.818024,1.714684c6.121796,1.628281 12.236053,3.349602 18.214111,5.350067c0.204285,0.06646 0.416199,0.179443 0.621246,0.265846c0.475983,0.206017 0.960266,0.412048 1.436981,0.624718c1.316681,0.571571 2.625824,1.14312 3.920532,1.741264c1.210022,0.558273 2.564514,1.176361 3.699585,1.854256c0.559967,0.338936 1.142639,0.664604 1.649628,1.06337c0.507019,0.405396 1.248566,1.043427 1.331818,1.674797c0.022705,0.199387 0.04541,0.372185 -0.015137,0.571571c-0.393463,1.269386 -2.572845,1.621628 -3.820618,1.794434c-0.371582,0.053154 -0.749939,0.099686 -1.128296,0.132919c-0.628052,0.046516 -1.256134,0.09304 -1.884216,0.14621c-0.4086,0.026581 -0.808899,0.059807 -1.217529,0.086403c-8.513031,0.624718 -17.026062,1.14312 -25.547424,1.621628c-6.802094,0.385475 -13.605713,0.717781 -20.408569,1.030144c-13.48465,0.618088 -26.969269,1.163055 -40.461487,1.661514c-20.089966,0.737717 -40.189087,1.408951 -60.287384,2.033691c-5.894043,0.179443 -11.782013,0.332306 -17.66925,0.498459c11.131256,-0.664612 22.292786,-1.129837 33.439178,-1.628281c27.877319,-1.262756 55.777344,-2.286255 83.647125,-3.655334c16.830078,-0.82412 33.681335,-1.687439 50.472809,-2.997375c-0.007568,0 -0.015137,0 -0.022675,0c0.621246,-0.059807 1.293945,-0.14621 1.899323,-0.279129c0.461578,-0.106346 0.953461,-0.225975 1.362061,-0.445282c0.068878,-0.039886 0.287598,-0.179459 0.302704,-0.259209c0.075653,-0.345589 -0.650757,-0.930443 -0.922424,-1.123177c-1.181244,-0.870636 -2.65683,-1.61499 -4.011322,-2.259651c-0.454041,-0.212677 -0.900482,-0.425362 -1.35379,-0.637365c-0.477478,-0.219988 -0.961761,-0.432655 -1.438477,-0.645327c-0.491882,-0.219322 -0.991302,-0.438652 -1.490753,-0.657949c-0.877777,-0.378845 -1.763123,-0.764297 -2.633331,-1.149775c0.015869,0.006639 0.037811,0.019943 0.060516,0.019943c-1.165344,-0.365532 -2.32312,-0.75766 -3.496033,-1.123192c-2.18689,-0.691185 -4.381378,-1.355789 -6.583405,-2.000458c-7.839539,-2.299538 -15.800171,-4.29335 -23.82135,-6.061213c-20.12027,-4.432906 -40.688507,-7.310654 -61.300598,-9.297812c-9.119202,-0.877274 -18.267853,-1.561821 -27.424072,-2.159966" fill-rule="nonzero" fill="#ffffff"/>
   <path id="svg_74" d="m152.441101,37.015625c9.06543,-3.641373 18.161133,-7.197678 27.317368,-10.646965c6.310989,-2.372643 12.644699,-4.731987 19.031357,-6.938492c8.680267,-2.997353 17.389282,-5.881752 26.288971,-8.34079c6.892914,-1.900758 13.847107,-3.595505 20.907257,-4.951309c5.425659,-1.036774 10.843719,-1.860893 16.345001,-2.525497c2.799866,-0.338936 5.645111,-0.618073 8.467621,-0.817451c1.717773,-0.119629 3.435516,-0.239265 5.16156,-0.338951c1.392365,-0.073112 2.791534,-0.119637 4.191437,-0.179443c1.808533,-0.07975 3.662506,-0.119629 5.478607,-0.132919c4.033295,-0.019943 8.028748,0.01329 12.055206,0.152863c9.730621,0.332298 19.371124,1.249443 29.004089,2.432442c2.451752,0.299072 4.896698,0.651314 7.340118,0.99691c5.629944,0.797523 11.267456,1.741264 16.845184,2.778053c1.822968,0.338951 3.639069,0.691177 5.462769,1.043427c0.923157,0.179436 1.846375,0.385474 2.7771,0.558272c-1.505829,-0.212685 -3.011688,-0.465218 -4.516815,-0.704483c-2.429047,-0.385475 -4.866425,-0.751007 -7.303009,-1.129828c-6.485077,-0.996911 -12.992798,-1.85424 -19.515686,-2.631845c-14.317017,-1.688087 -28.898895,-2.651764 -43.352112,-2.346046c-5.00943,0.106331 -9.972748,0.378822 -14.967804,0.790878c-12.273895,1.003555 -24.516785,3.190102 -36.375244,6.114365c-9.981049,2.459038 -19.76535,5.443108 -29.458862,8.646514c-11.910675,3.941093 -23.692703,8.241104 -35.452042,12.521156c-5.228882,1.907412 -10.465332,3.808191 -15.732071,5.649141" fill-rule="nonzero" fill="#ffffff"/>
   <path id="svg_73" d="m297.177734,4.496513c0.892914,-0.039879 1.77829,-0.093033 2.671173,-0.119629c0.901276,-0.019943 1.801025,-0.019943 2.701508,-0.026581c3.14035,0 6.356384,0.179443 9.482361,0.418709c3.563354,0.272476 7.142639,0.618065 10.684052,1.06337c3.200897,0.405396 6.379089,0.83075 9.572418,1.289986c6.409393,0.923134 12.796051,2.039673 19.160767,3.189445c10.608368,1.927353 21.156952,4.113892 31.675262,6.380203c14.794525,3.190102 29.511841,6.67263 44.199646,10.221626c3.542175,0.857338 7.075287,1.741262 10.609161,2.611898c7.937927,1.947281 15.868225,3.961039 23.769104,6.008692c2.958008,0.763634 5.916748,1.521278 8.875488,2.292221c0.983765,0.252556 1.967468,0.511742 2.958801,0.77095c0.393433,0.106331 0.8172,0.192726 1.203125,0.312363c0.181641,0.053169 0.378357,0.132919 0.559998,0.199379c0.408569,0.152863 0.824768,0.299072 1.233459,0.458572c1.06012,0.412048 2.111206,0.824112 3.171326,1.256119c3.912231,1.614975 7.785889,3.655319 11.145691,6.054535c0.597778,0.425354 1.195557,0.870636 1.763123,1.322571c0.144531,0.112976 0.530457,0.37883 0.559998,0.544983c0.045349,0.246567 0,0.584854 0,0.84404c-0.007568,0.584854 -0.029541,1.169708 -0.052979,1.74791c-0.068115,1.854248 -0.165771,3.708496 -0.294373,5.556091c-0.416931,5.855179 -1.166077,11.736923 -2.119568,17.53894c-0.2724,1.694733 -0.567505,3.382828 -0.870239,5.077576c-0.151306,0.810806 -0.31781,1.621643 -0.461609,2.439087c0.174805,-1.422241 0.385986,-2.844498 0.582703,-4.266754c0.46991,-3.502472 0.908813,-7.018219 1.271301,-10.533997c0.462341,-4.472794 0.8172,-8.978806 0.969299,-13.471527c0.052246,-1.615005 0.067383,-3.229996 0.090088,-4.844971c0,0.112976 0.052979,0.225952 0.151306,0.299072c-0.673462,-0.511765 -1.331787,-1.016846 -2.020447,-1.508667c-1.468018,-1.023483 -3.004089,-1.973877 -4.592468,-2.83786c-2.482788,-1.355789 -5.153992,-2.572021 -7.824402,-3.601486c-1.219055,-0.465897 -2.42981,-0.904541 -3.654907,-1.349823c0.021912,0.006653 0.037048,0.01329 0.060486,0.020607c-37.019165,-9.338364 -74.082977,-18.596313 -111.585724,-26.312371c-6.409393,-1.315918 -12.856567,-2.578667 -19.311371,-3.728439c-5.55426,-0.98362 -11.116089,-1.947296 -16.71579,-2.764762c-4.638641,-0.677895 -9.27655,-1.289322 -13.953796,-1.7612c-3.942474,-0.398766 -7.960632,-0.717758 -11.940186,-0.784225c-1.241791,-0.026588 -2.47522,-0.019936 -3.723785,-0.006653" fill-rule="nonzero" fill="#ffffff"/>
   <path id="svg_72" d="m137.019272,110.594055c1.256149,-0.039886 2.50473,-0.093048 3.760864,-0.132935c3.504349,-0.112305 6.999603,-0.199371 10.503952,-0.272491c7.990143,-0.166153 15.981033,-0.265839 23.971939,-0.358871c14.801315,-0.166153 29.625351,-0.338287 44.419083,-0.751007c14.521332,-0.398773 29.0578,-0.936417 43.533752,-2.020401c7.347687,-0.55162 14.650726,-1.236176 21.952271,-2.133377c6.159637,-0.764297 12.326874,-1.727982 18.380585,-2.990723c2.792267,-0.584198 5.637512,-1.24881 8.362427,-2.033691c1.384033,-0.405411 2.77713,-0.804169 4.138458,-1.276047c4.018158,-1.375732 7.733612,-2.917618 11.154724,-5.237076c-0.0159,0.006638 -0.030273,0.019928 -0.046143,0.033234c6.4245,-5.197235 12.213348,-10.965988 17.722198,-16.907562c3.261444,-3.529053 6.477478,-7.084015 9.664001,-10.660263c0.89975,-1.010193 1.793427,-2.040329 2.715851,-3.037247c0.332947,-0.358887 0.696198,-0.717773 1.051819,-1.070007c0.665924,-0.677902 1.340149,-1.349152 2.020447,-2.013763c2.481995,-2.419159 4.995056,-4.738632 7.74118,-6.931839c4.404083,-3.509094 9.47406,-6.66597 15.141846,-8.360718c1.664764,-0.491806 3.32196,-0.857346 5.047272,-1.103237c0.847504,-0.119633 1.679901,-0.17281 2.527435,-0.252563c-0.385925,0.07312 -0.847534,0.093719 -1.247833,0.14621c-0.575867,0.079773 -1.143402,0.172806 -1.718506,0.272507c-2.004517,0.358871 -4.048431,0.950378 -5.925049,1.654861c-5.198639,1.95393 -9.504333,4.911438 -13.628418,8.261032c-1.157776,0.943741 -2.307983,1.960587 -3.381744,2.970779c-2.414703,2.259659 -4.699951,4.552547 -6.962524,6.918549c0,-0.006653 0.007538,-0.006653 0.007538,-0.01329c-6.560669,7.503384 -13.06842,15.099819 -20.234528,22.171215c-2.065796,2.040344 -4.184601,4.014221 -6.379059,5.948212c-0.703766,0.624741 -1.422638,1.229523 -2.149078,1.840973c-0.385925,0.318985 -0.786987,0.677887 -1.195618,0.976959c-0.310272,0.23262 -0.68103,0.465225 -1.013977,0.677902c-1.339417,0.850693 -2.724182,1.602356 -4.184631,2.286224c-2.527435,1.182999 -5.206207,2.179916 -7.899353,3.023956c-1.733643,0.544983 -3.496765,1.056732 -5.259918,1.502014c-4.230042,1.06337 -8.460052,1.947296 -12.772583,2.684998c-5.350708,0.923813 -10.738495,1.641586 -16.148254,2.253021c-8.831604,0.996902 -17.714691,1.654861 -26.599243,2.186539c-8.127075,0.485168 -16.276917,0.797531 -24.411591,1.043427c-8.656799,0.259216 -17.328735,0.425354 -25.99234,0.511765c-7.953827,0.079742 -15.906891,0.132919 -23.867508,0.152847c-14.264053,0.039886 -28.528107,-0.006638 -42.799744,0.039886" fill-rule="nonzero" fill="#ffffff"/>
   <path id="svg_71" d="m2.861801,118.582596c0.264854,-0.192734 0.521988,-0.392105 0.809311,-0.564911c1.740738,-1.043427 3.791588,-1.733963 5.826775,-2.199844c2.224731,-0.505096 4.532707,-0.877289 6.833115,-1.083298c1.468033,-0.132919 2.921679,-0.245926 4.396507,-0.332306c4.048416,-0.239258 8.202782,-0.252548 12.251198,-0.186096c3.609528,0.053177 7.219055,0.112991 10.813438,0.36554c-1.066963,0.186096 -2.224739,0.259186 -3.314407,0.332306c-2.103661,0.14621 -4.21489,0.219315 -6.326126,0.279129c-3.957602,0.119629 -7.915222,0.172806 -11.872078,0.325653c-1.702606,0.073105 -3.398397,0.166138 -5.093437,0.272491c-3.904639,0.245895 -7.937926,0.731064 -11.66838,1.814377c-0.923187,0.265839 -1.778046,0.618088 -2.655914,0.976959" fill-rule="nonzero" fill="#ffffff"/>
   <path id="svg_65" d="m193.886322,124.52417c-11.45665,-0.206024 -22.898178,-0.485153 -34.347244,-0.824097c-4.230042,-0.126282 -8.452499,-0.265839 -12.674957,-0.412064c-1.165344,-0.039871 -2.330673,-0.079758 -3.503586,-0.119629c-0.688614,-0.025925 -1.407486,-0.033218 -2.096085,-0.079758c-0.688629,-0.039871 -1.399933,-0.053162 -2.087784,-0.079758c-1.158539,-0.039856 -2.323868,-0.086395 -3.481644,-0.132919c-0.022705,0 -1.369659,-0.046509 -1.392349,-0.053162c-0.461594,-0.033234 -0.923203,-0.033234 -1.384781,-0.053162c-0.234589,-0.005981 -0.484314,0.053162 -0.696182,-0.026596c-0.158905,-0.059799 -1.271271,0 -1.384781,-0.059799c-0.04541,-0.019943 -0.04541,-0.093063 -0.090805,-0.112991l-0.332962,-0.471207c0,-0.007309 0.174042,-0.352905 0.189178,-0.379486c0.151337,-0.292435 0.287552,-0.584854 0.43132,-0.877274l0.11351,-0.245911c0.04541,-0.059814 0.143784,-0.299072 0.181625,-0.37883c0.128632,-0.292419 0.264847,-0.578201 0.393478,-0.870621c0.454788,-1.030136 0.870224,-2.066269 1.248581,-3.117004c1.233444,-3.388824 2.088531,-6.8853 2.474442,-10.427643c1.014008,-9.144974 -1.051819,-18.316528 -6.424484,-26.237946c-1.475586,-2.17392 -3.200897,-4.274078 -5.122955,-6.161545c-2.383636,-2.326126 -5.001877,-4.419632 -7.922806,-6.214066c-4.010574,-2.472321 -8.391937,-4.373112 -13.060867,-5.675739c5.168365,1.415623 9.928085,3.442661 14.301895,6.254612c2.693893,1.72731 5.213745,3.741058 7.408981,5.94754c8.451721,8.473724 12.386642,19.359955 11.713928,30.565186c-0.288315,4.731995 -1.377975,9.31778 -3.103287,13.763977l-1.687469,3.814819l30.026398,0.837418c30.707443,0.711121 61.437607,1.003555 92.152634,0.970322c19.53833,-0.019943 39.084259,-0.172806 58.623352,-0.465225l58.138306,-1.242813l-2.618225,-7.363815c-2.239899,-7.915451 -2.70224,-16.156555 -0.038574,-24.111877c1.051819,-3.150238 2.55011,-6.160889 4.441895,-8.992111c1.120697,-1.68808 2.36853,-3.289795 3.723022,-4.825027l1.052612,-1.070007l0.150574,-0.185425c1.006439,-1.083984 2.051422,-2.140701 3.14035,-3.150894l-3.290924,3.336319l-2.687103,3.190109c-1.77829,2.326111 -3.306091,4.785141 -4.517578,7.377106c-2.91333,6.247284 -3.896332,12.813583 -3.163086,19.526093c0.446472,4.06073 1.422668,8.001846 2.815002,11.890442c0.401031,1.142456 0.847504,2.265656 1.309875,3.382172c0.121033,0.285782 0.241394,0.564911 0.362457,0.851364c0.022705,0.052505 0.052948,0.11232 0.076416,0.172134c0.021942,0.053177 0.105194,0.113647 0.074951,0.166153c-0.022736,0.033234 -0.324646,0.425339 -0.324646,0.431992l-1.620148,0.060486c-0.264832,0.052505 -0.54483,0.019272 -0.809692,0.025925l-1.619354,0.060471c-1.331818,0.079742 -2.700714,0.09903 -4.040833,0.145538c-2.68634,0.093063 -5.365112,0.186768 -8.043854,0.272507c-14.521393,0.485153 -29.050293,0.877274 -43.571625,1.169693c-39.122101,0.797516 -78.274445,0.923813 -117.404114,0.206024" fill-rule="evenodd" fill="#ffffff"/>
   <path id="svg_64" d="m1.469521,118.057571c1.346725,1.814362 4.593254,2.253006 6.82518,2.485611c0.673477,0.07312 1.339386,0.126282 2.012863,0.172806c13.136551,0.598801 26.280663,1.202942 39.417221,1.801086c-0.219444,0.106323 -0.438896,0.206009 -0.65078,0.30571c0,0.212662 0.007576,0.431992 0.007576,0.644653c-3.22361,-4.446198 -5.486176,-9.343658 -6.447212,-14.561478c-0.688606,-3.715149 -0.673477,-7.442917 -0.121071,-11.172012c-0.499428,5.841888 0.438896,11.530884 2.890648,16.987305c0.620506,1.375732 1.331818,2.72554 2.118797,4.040802c0.317825,0.518372 0.674232,1.030807 0.983727,1.555832c0.332954,0.564255 0.794548,1.163055 1.188049,1.707367c0.151337,0.206696 0.310249,0.412048 0.461594,0.624741c0.037834,0.053162 0.098373,0.093033 0.113503,0.152847c0.030273,0.066452 0.015129,0.544983 0.015129,0.651306c-0.105927,0.046524 -0.567535,0.285797 -0.650772,0.299072c-2.572067,0.478516 -5.251595,-0.338928 -7.869064,-0.505081c-7.878143,-0.511765 -15.747971,-1.01619 -23.625359,-1.528595c-2.739295,-0.179459 -5.486176,-0.299072 -8.22547,-0.55162c-0.794556,-0.07312 -1.649643,-0.21933 -2.428909,-0.358902c-2.156631,-0.385452 -4.812546,-0.970306 -6.01564,-2.75145" fill-rule="nonzero" fill="#ffffff"/>
   <path id="svg_63" d="m458.75885,95.799942c1.340149,9.185501 -0.348083,17.804749 -4.911072,26.145554c-0.022705,-0.206024 -0.04541,-0.412064 -0.068115,-0.618073c-0.219482,-0.07312 -0.438904,-0.146225 -0.650757,-0.21933c4.767273,-0.83075 9.534607,-1.661514 14.30188,-2.492264c-0.166504,0.112976 -0.348083,0.225952 -0.521362,0.332306c4.335205,-6.978363 8.5047,-14.063049 12.129333,-21.35376c-0.007568,0.026566 -0.015137,0.046509 -0.021912,0.073105c0.09082,-0.425354 0.241394,-0.844055 0.460815,-1.236176c1.052612,-1.820999 3.208496,-2.126724 5.319702,-1.973862c0.499451,0.033218 1.059387,0.099686 1.543701,0.199371c0.053711,0.006638 2.91333,0.644669 2.966309,0.651321c0.499451,0.07309 0.992065,0.212662 1.483154,0.325653c0.983704,0.213333 1.968201,0.431992 2.95874,0.651306c-2.496338,-0.431992 -4.986694,-0.857346 -7.476318,-1.282684c-1.982605,-0.245895 -4.8573,-0.325653 -5.970459,1.482071c-0.181641,0.292419 -0.287537,0.564911 -0.378357,0.877274c-0.052979,0.166153 -0.059753,0.352249 -0.121094,0.511749c-0.151306,0.425354 -0.401062,0.877274 -0.575073,1.302628c-0.295105,0.69783 -0.64325,1.408966 -0.967834,2.100143c-0.591003,1.249466 -1.188843,2.492264 -1.816895,3.729111c-1.384766,2.750793 -2.845215,5.475662 -4.388916,8.167984c-0.582703,1.022827 -1.17218,2.039688 -1.778259,3.049881c-0.166504,0.279129 -0.333008,0.558929 -0.499451,0.837387l-0.340515,0.558289c-0.121094,0.259186 -0.401062,0.591492 -0.506226,0.844696c-0.037842,0.09903 -0.114319,0.18544 -0.174805,0.279144c-0.052246,0.092377 -0.08252,0.205368 -0.166504,0.278458c-0.007568,0.006653 -0.348083,0.558273 -0.348083,0.558273c-0.006836,0.01329 -0.513855,0.338943 -0.522156,0.338943c-0.915649,0.292435 -1.899353,0.511765 -2.86792,0.471878c-0.967834,-0.046524 -1.913757,0.312363 -2.86792,0.465225l-5.735168,0.937103c-0.855835,0.405396 -1.900085,0.544968 -2.86792,0.465225c-0.084045,-0.006653 -0.545593,-0.179459 -0.658386,-0.21933c-0.008301,-0.093048 -0.083984,-0.544968 -0.068054,-0.611435c0.014343,-0.073105 0.294373,-0.511765 0.354858,-0.610779c0.242188,-0.432663 0.56073,-0.944412 0.756714,-1.389694c0.091553,-0.199371 0.220215,-0.418701 0.325378,-0.618073c0.205078,-0.405411 0.416199,-0.816803 0.613708,-1.23616c0.581909,-1.229523 1.111633,-2.478989 1.588318,-3.74173c2.18689,-5.815292 3.004211,-11.923019 2.466919,-18.030731" fill-rule="nonzero" fill="#ffffff"/>
   <path id="svg_62" d="m189.527649,42.684708c5.645844,-2.75811 12.062012,-5.383301 20.63559,-7.629669l0.431305,0.950394c-2.481995,1.276031 -4.161926,2.545441 -4.343506,3.814819c-4.706757,-0.053154 -10.298889,0.91716 -16.723389,2.864456" fill-rule="evenodd" fill="#ffffff"/>
  </g>
 </g>
</svg>
